# xmcd
# 
# Track frame offsets:
#     150
#     27075
#     57262
#     64016
#     108884
#     118314
#     147898
#     172818
#     185270
#     207397
# 
# Disc length: 3169
# 
# Revision: 2
# Processed by: cddbd v1.5.2PL0 Copyright (c) Steve Scherf et al.
# Submitted via: fre:ac v1.0.27
# 
DISCID=870c5f0a
DTITLE=Miroslav Vitous - Music of Weather Report
DYEAR=2016
DGENRE=Jazz
TTITLE0=Scarlet Woman Variations
TTITLE1=Seventh Arrow
TTITLE2=Multi Dimension Blues
TTITLE3=Birdland Variations
TTITLE4=Multi Dimension Blues 1
TTITLE5=Pinocchio
TTITLE6=Acrobat Issues
TTITLE7=Scarlet Reflections
TTITLE8=Multi Dimension Blues 3
TTITLE9=Morning Lake
EXTD=YEAR: 2016
EXTT0=
EXTT1=
EXTT2=
EXTT3=
EXTT4=
EXTT5=
EXTT6=
EXTT7=
EXTT8=
EXTT9=
PLAYORDER=
